<?xml version="1.0" encoding="us-ascii" standalone="no"?><svg xmlns="http://www.w3.org/2000/svg" xmlns:xlink="http://www.w3.org/1999/xlink" contentStyleType="text/css" height="1530px" preserveAspectRatio="none" style="width:1089px;height:1530px;background:#FFFFFF;" version="1.1" viewBox="0 0 1089 1530" width="1089px" zoomAndPan="magnify"><defs/><g><rect fill="none" height="467.9023" style="stroke:#000000;stroke-width:1.5;" width="958" x="10" y="493.5254"/><rect fill="none" height="231.418" style="stroke:#000000;stroke-width:1.5;" width="297.5" x="210" y="547.1465"/><rect fill="none" height="266.75" style="stroke:#000000;stroke-width:1.5;" width="758" x="210" y="1165.291"/><line style="stroke:#181818;stroke-width:0.5;stroke-dasharray:5.0,5.0;" x1="45" x2="45" y1="81.4883" y2="1449.041"/><line style="stroke:#181818;stroke-width:0.5;stroke-dasharray:5.0,5.0;" x1="258" x2="258" y1="81.4883" y2="1449.041"/><line style="stroke:#181818;stroke-width:0.5;stroke-dasharray:5.0,5.0;" x1="553" x2="553" y1="81.4883" y2="1449.041"/><line style="stroke:#181818;stroke-width:0.5;stroke-dasharray:5.0,5.0;" x1="668" x2="668" y1="81.4883" y2="1449.041"/><line style="stroke:#181818;stroke-width:0.5;stroke-dasharray:5.0,5.0;" x1="904" x2="904" y1="81.4883" y2="1449.041"/><line style="stroke:#181818;stroke-width:0.5;stroke-dasharray:5.0,5.0;" x1="1022" x2="1022" y1="81.4883" y2="1449.041"/><text fill="#000000" font-family="sans-serif" font-size="14" lengthAdjust="spacing" textLength="45" x="20" y="78.5352">User A</text><ellipse cx="45.5" cy="13.5" fill="#E2E2F0" rx="8" ry="8" style="stroke:#181818;stroke-width:0.5;"/><path d="M45.5,21.5 L45.5,48.5 M32.5,29.5 L58.5,29.5 M45.5,48.5 L32.5,63.5 M45.5,48.5 L58.5,63.5 " fill="none" style="stroke:#181818;stroke-width:0.5;"/><text fill="#000000" font-family="sans-serif" font-size="14" lengthAdjust="spacing" textLength="45" x="20" y="1461.5762">User A</text><ellipse cx="45.5" cy="1473.0293" fill="#E2E2F0" rx="8" ry="8" style="stroke:#181818;stroke-width:0.5;"/><path d="M45.5,1481.0293 L45.5,1508.0293 M32.5,1489.0293 L58.5,1489.0293 M45.5,1508.0293 L32.5,1523.0293 M45.5,1508.0293 L58.5,1523.0293 " fill="none" style="stroke:#181818;stroke-width:0.5;"/><rect fill="#E2E2F0" height="30.4883" rx="2.5" ry="2.5" style="stroke:#181818;stroke-width:0.5;" width="77" x="220" y="50"/><text fill="#000000" font-family="sans-serif" font-size="14" lengthAdjust="spacing" textLength="63" x="227" y="70.5352">Frontend</text><rect fill="#E2E2F0" height="30.4883" rx="2.5" ry="2.5" style="stroke:#181818;stroke-width:0.5;" width="77" x="220" y="1448.041"/><text fill="#000000" font-family="sans-serif" font-size="14" lengthAdjust="spacing" textLength="63" x="227" y="1468.5762">Frontend</text><rect fill="#E2E2F0" height="30.4883" rx="2.5" ry="2.5" style="stroke:#181818;stroke-width:0.5;" width="139" x="484" y="50"/><text fill="#000000" font-family="sans-serif" font-size="14" lengthAdjust="spacing" textLength="125" x="491" y="70.5352">Redis (State Store)</text><rect fill="#E2E2F0" height="30.4883" rx="2.5" ry="2.5" style="stroke:#181818;stroke-width:0.5;" width="139" x="484" y="1448.041"/><text fill="#000000" font-family="sans-serif" font-size="14" lengthAdjust="spacing" textLength="125" x="491" y="1468.5762">Redis (State Store)</text><rect fill="#E2E2F0" height="30.4883" rx="2.5" ry="2.5" style="stroke:#181818;stroke-width:0.5;" width="71" x="633" y="50"/><text fill="#000000" font-family="sans-serif" font-size="14" lengthAdjust="spacing" textLength="57" x="640" y="70.5352">Backend</text><rect fill="#E2E2F0" height="30.4883" rx="2.5" ry="2.5" style="stroke:#181818;stroke-width:0.5;" width="71" x="633" y="1448.041"/><text fill="#000000" font-family="sans-serif" font-size="14" lengthAdjust="spacing" textLength="57" x="640" y="1468.5762">Backend</text><rect fill="#E2E2F0" height="30.4883" rx="2.5" ry="2.5" style="stroke:#181818;stroke-width:0.5;" width="107" x="851" y="50"/><text fill="#000000" font-family="sans-serif" font-size="14" lengthAdjust="spacing" textLength="93" x="858" y="70.5352">SQL Database</text><rect fill="#E2E2F0" height="30.4883" rx="2.5" ry="2.5" style="stroke:#181818;stroke-width:0.5;" width="107" x="851" y="1448.041"/><text fill="#000000" font-family="sans-serif" font-size="14" lengthAdjust="spacing" textLength="93" x="858" y="1468.5762">SQL Database</text><rect fill="#E2E2F0" height="46.9766" rx="2.5" ry="2.5" style="stroke:#181818;stroke-width:0.5;" width="109" x="968" y="33.5117"/><text fill="#000000" font-family="sans-serif" font-size="14" lengthAdjust="spacing" textLength="95" x="975" y="54.0469">AI Annotation</text><text fill="#000000" font-family="sans-serif" font-size="14" lengthAdjust="spacing" textLength="85" x="980" y="70.5352">Microservice</text><rect fill="#E2E2F0" height="46.9766" rx="2.5" ry="2.5" style="stroke:#181818;stroke-width:0.5;" width="109" x="968" y="1448.041"/><text fill="#000000" font-family="sans-serif" font-size="14" lengthAdjust="spacing" textLength="95" x="975" y="1468.5762">AI Annotation</text><text fill="#000000" font-family="sans-serif" font-size="14" lengthAdjust="spacing" textLength="85" x="980" y="1485.0645">Microservice</text><rect fill="#EEEEEE" height="3" style="stroke:#EEEEEE;stroke-width:1.0;" width="1082" x="0" y="112.1436"/><line style="stroke:#000000;stroke-width:1.0;" x1="0" x2="1082" y1="112.1436" y2="112.1436"/><line style="stroke:#000000;stroke-width:1.0;" x1="0" x2="1082" y1="115.1436" y2="115.1436"/><rect fill="#EEEEEE" height="23.3105" style="stroke:#000000;stroke-width:2.0;" width="128" x="477" y="101.4883"/><text fill="#000000" font-family="sans-serif" font-size="13" font-weight="bold" lengthAdjust="spacing" textLength="110" x="483" y="118.0566">Project Selection</text><polygon fill="#181818" points="246.5,152.1094,256.5,156.1094,246.5,160.1094,250.5,156.1094" style="stroke:#181818;stroke-width:1.0;"/><line style="stroke:#181818;stroke-width:1.0;" x1="45.5" x2="252.5" y1="156.1094" y2="156.1094"/><text fill="#000000" font-family="sans-serif" font-size="13" lengthAdjust="spacing" textLength="144" x="52.5" y="151.3672">selectProject(projectId)</text><polygon fill="#181818" points="656.5,181.4199,666.5,185.4199,656.5,189.4199,660.5,185.4199" style="stroke:#181818;stroke-width:1.0;"/><line style="stroke:#181818;stroke-width:1.0;" x1="258.5" x2="662.5" y1="185.4199" y2="185.4199"/><text fill="#000000" font-family="sans-serif" font-size="13" lengthAdjust="spacing" textLength="94" x="265.5" y="180.6777">getProjectList()</text><polygon fill="#181818" points="892.5,210.7305,902.5,214.7305,892.5,218.7305,896.5,214.7305" style="stroke:#181818;stroke-width:1.0;"/><line style="stroke:#181818;stroke-width:1.0;" x1="668.5" x2="898.5" y1="214.7305" y2="214.7305"/><text fill="#000000" font-family="sans-serif" font-size="13" lengthAdjust="spacing" textLength="149" x="675.5" y="209.9883">SELECT * FROM Projects</text><polygon fill="#181818" points="679.5,240.041,669.5,244.041,679.5,248.041,675.5,244.041" style="stroke:#181818;stroke-width:1.0;"/><line style="stroke:#181818;stroke-width:1.0;stroke-dasharray:2.0,2.0;" x1="673.5" x2="903.5" y1="244.041" y2="244.041"/><text fill="#000000" font-family="sans-serif" font-size="13" lengthAdjust="spacing" textLength="59" x="685.5" y="239.2988">projects[]</text><polygon fill="#181818" points="269.5,269.3516,259.5,273.3516,269.5,277.3516,265.5,273.3516" style="stroke:#181818;stroke-width:1.0;"/><line style="stroke:#181818;stroke-width:1.0;stroke-dasharray:2.0,2.0;" x1="263.5" x2="667.5" y1="273.3516" y2="273.3516"/><text fill="#000000" font-family="sans-serif" font-size="13" lengthAdjust="spacing" textLength="59" x="275.5" y="268.6094">projects[]</text><polygon fill="#181818" points="246.5,298.6621,256.5,302.6621,246.5,306.6621,250.5,302.6621" style="stroke:#181818;stroke-width:1.0;"/><line style="stroke:#181818;stroke-width:1.0;" x1="45.5" x2="252.5" y1="302.6621" y2="302.6621"/><text fill="#000000" font-family="sans-serif" font-size="13" lengthAdjust="spacing" textLength="138" x="52.5" y="297.9199">openProject(projectId)</text><polygon fill="#181818" points="656.5,327.9727,666.5,331.9727,656.5,335.9727,660.5,331.9727" style="stroke:#181818;stroke-width:1.0;"/><line style="stroke:#181818;stroke-width:1.0;" x1="258.5" x2="662.5" y1="331.9727" y2="331.9727"/><text fill="#000000" font-family="sans-serif" font-size="13" lengthAdjust="spacing" textLength="134" x="265.5" y="327.2305">loadProject(projectId)</text><polygon fill="#181818" points="892.5,372.5938,902.5,376.5938,892.5,380.5938,896.5,376.5938" style="stroke:#181818;stroke-width:1.0;"/><line style="stroke:#181818;stroke-width:1.0;" x1="668.5" x2="898.5" y1="376.5938" y2="376.5938"/><text fill="#000000" font-family="sans-serif" font-size="13" lengthAdjust="spacing" textLength="161" x="675.5" y="356.541">SELECT data, permissions</text><text fill="#000000" font-family="sans-serif" font-size="13" lengthAdjust="spacing" textLength="212" x="675.5" y="371.8516">FROM Project WHERE id=projectId</text><polygon fill="#181818" points="679.5,401.9043,669.5,405.9043,679.5,409.9043,675.5,405.9043" style="stroke:#181818;stroke-width:1.0;"/><line style="stroke:#181818;stroke-width:1.0;stroke-dasharray:2.0,2.0;" x1="673.5" x2="903.5" y1="405.9043" y2="405.9043"/><text fill="#000000" font-family="sans-serif" font-size="13" lengthAdjust="spacing" textLength="120" x="685.5" y="401.1621">projectData, perms</text><polygon fill="#181818" points="269.5,431.2148,259.5,435.2148,269.5,439.2148,265.5,435.2148" style="stroke:#181818;stroke-width:1.0;"/><line style="stroke:#181818;stroke-width:1.0;stroke-dasharray:2.0,2.0;" x1="263.5" x2="667.5" y1="435.2148" y2="435.2148"/><text fill="#000000" font-family="sans-serif" font-size="13" lengthAdjust="spacing" textLength="120" x="275.5" y="430.4727">projectData, perms</text><rect fill="#EEEEEE" height="3" style="stroke:#EEEEEE;stroke-width:1.0;" width="1082" x="0" y="463.8701"/><line style="stroke:#000000;stroke-width:1.0;" x1="0" x2="1082" y1="463.8701" y2="463.8701"/><line style="stroke:#000000;stroke-width:1.0;" x1="0" x2="1082" y1="466.8701" y2="466.8701"/><rect fill="#EEEEEE" height="23.3105" style="stroke:#000000;stroke-width:2.0;" width="220" x="431" y="453.2148"/><text fill="#000000" font-family="sans-serif" font-size="13" font-weight="bold" lengthAdjust="spacing" textLength="202" x="437" y="469.7832">Real-Time Editing Operations</text><path d="M10,493.5254 L84,493.5254 L84,500.8359 L74,510.8359 L10,510.8359 L10,493.5254 " fill="#EEEEEE" style="stroke:#000000;stroke-width:1.5;"/><rect fill="none" height="467.9023" style="stroke:#000000;stroke-width:1.5;" width="958" x="10" y="493.5254"/><text fill="#000000" font-family="sans-serif" font-size="13" font-weight="bold" lengthAdjust="spacing" textLength="29" x="25" y="507.0938">loop</text><text fill="#000000" font-family="sans-serif" font-size="11" font-weight="bold" lengthAdjust="spacing" textLength="175" x="99" y="506.1602">[user performs editing actions]</text><polygon fill="#181818" points="246.5,528.1465,256.5,532.1465,246.5,536.1465,250.5,532.1465" style="stroke:#181818;stroke-width:1.0;"/><line style="stroke:#181818;stroke-width:1.0;" x1="45.5" x2="252.5" y1="532.1465" y2="532.1465"/><text fill="#000000" font-family="sans-serif" font-size="13" lengthAdjust="spacing" textLength="189" x="52.5" y="527.4043">startOperation(operationType)</text><path d="M210,547.1465 L272,547.1465 L272,554.457 L262,564.457 L210,564.457 L210,547.1465 " fill="#EEEEEE" style="stroke:#000000;stroke-width:1.5;"/><rect fill="none" height="231.418" style="stroke:#000000;stroke-width:1.5;" width="297.5" x="210" y="547.1465"/><text fill="#000000" font-family="sans-serif" font-size="13" font-weight="bold" lengthAdjust="spacing" textLength="17" x="225" y="560.7148">alt</text><text fill="#000000" font-family="sans-serif" font-size="11" font-weight="bold" lengthAdjust="spacing" textLength="215" x="287" y="559.7813">[operationType = Draw bounding box]</text><line style="stroke:#181818;stroke-width:1.0;" x1="258.5" x2="300.5" y1="585.7676" y2="585.7676"/><line style="stroke:#181818;stroke-width:1.0;" x1="300.5" x2="300.5" y1="585.7676" y2="598.7676"/><line style="stroke:#181818;stroke-width:1.0;" x1="259.5" x2="300.5" y1="598.7676" y2="598.7676"/><polygon fill="#181818" points="269.5,594.7676,259.5,598.7676,269.5,602.7676,265.5,598.7676" style="stroke:#181818;stroke-width:1.0;"/><text fill="#000000" font-family="sans-serif" font-size="13" lengthAdjust="spacing" textLength="173" x="265.5" y="581.0254">renderBoundingBox(coords)</text><line style="stroke:#000000;stroke-width:1.0;stroke-dasharray:2.0,2.0;" x1="210" x2="507.5" y1="607.7676" y2="607.7676"/><text fill="#000000" font-family="sans-serif" font-size="11" font-weight="bold" lengthAdjust="spacing" textLength="201" x="215" y="618.4023">[operationType = Skeleton labeling]</text><line style="stroke:#181818;stroke-width:1.0;" x1="258.5" x2="300.5" y1="643.0332" y2="643.0332"/><line style="stroke:#181818;stroke-width:1.0;" x1="300.5" x2="300.5" y1="643.0332" y2="656.0332"/><line style="stroke:#181818;stroke-width:1.0;" x1="259.5" x2="300.5" y1="656.0332" y2="656.0332"/><polygon fill="#181818" points="269.5,652.0332,259.5,656.0332,269.5,660.0332,265.5,656.0332" style="stroke:#181818;stroke-width:1.0;"/><text fill="#000000" font-family="sans-serif" font-size="13" lengthAdjust="spacing" textLength="187" x="265.5" y="638.291">renderSkeleton(points, edges)</text><line style="stroke:#000000;stroke-width:1.0;stroke-dasharray:2.0,2.0;" x1="210" x2="507.5" y1="665.0332" y2="665.0332"/><text fill="#000000" font-family="sans-serif" font-size="11" font-weight="bold" lengthAdjust="spacing" textLength="188" x="215" y="675.668">[operationType = Edit properties]</text><line style="stroke:#181818;stroke-width:1.0;" x1="258.5" x2="300.5" y1="700.2988" y2="700.2988"/><line style="stroke:#181818;stroke-width:1.0;" x1="300.5" x2="300.5" y1="700.2988" y2="713.2988"/><line style="stroke:#181818;stroke-width:1.0;" x1="259.5" x2="300.5" y1="713.2988" y2="713.2988"/><polygon fill="#181818" points="269.5,709.2988,259.5,713.2988,269.5,717.2988,265.5,713.2988" style="stroke:#181818;stroke-width:1.0;"/><text fill="#000000" font-family="sans-serif" font-size="13" lengthAdjust="spacing" textLength="230" x="265.5" y="695.5566">openProperties(name, color, opacity)</text><line style="stroke:#000000;stroke-width:1.0;stroke-dasharray:2.0,2.0;" x1="210" x2="507.5" y1="722.2988" y2="722.2988"/><text fill="#000000" font-family="sans-serif" font-size="11" font-weight="bold" lengthAdjust="spacing" textLength="183" x="215" y="732.9336">[operationType = Add comment]</text><line style="stroke:#181818;stroke-width:1.0;" x1="258.5" x2="300.5" y1="757.5645" y2="757.5645"/><line style="stroke:#181818;stroke-width:1.0;" x1="300.5" x2="300.5" y1="757.5645" y2="770.5645"/><line style="stroke:#181818;stroke-width:1.0;" x1="259.5" x2="300.5" y1="770.5645" y2="770.5645"/><polygon fill="#181818" points="269.5,766.5645,259.5,770.5645,269.5,774.5645,265.5,770.5645" style="stroke:#181818;stroke-width:1.0;"/><text fill="#000000" font-family="sans-serif" font-size="13" lengthAdjust="spacing" textLength="160" x="265.5" y="752.8223">showCommentInput(text)</text><polygon fill="#181818" points="541.5,802.875,551.5,806.875,541.5,810.875,545.5,806.875" style="stroke:#181818;stroke-width:1.0;"/><line style="stroke:#181818;stroke-width:1.0;" x1="258.5" x2="547.5" y1="806.875" y2="806.875"/><text fill="#000000" font-family="sans-serif" font-size="13" lengthAdjust="spacing" textLength="271" x="265.5" y="802.1328">saveState(projectId, operationType, details)</text><polygon fill="#181818" points="269.5,832.1855,259.5,836.1855,269.5,840.1855,265.5,836.1855" style="stroke:#181818;stroke-width:1.0;"/><line style="stroke:#181818;stroke-width:1.0;stroke-dasharray:2.0,2.0;" x1="263.5" x2="552.5" y1="836.1855" y2="836.1855"/><text fill="#000000" font-family="sans-serif" font-size="13" lengthAdjust="spacing" textLength="18" x="275.5" y="831.4434">OK</text><polygon fill="#181818" points="656.5,861.4961,666.5,865.4961,656.5,869.4961,660.5,865.4961" style="stroke:#181818;stroke-width:1.0;"/><line style="stroke:#181818;stroke-width:1.0;" x1="258.5" x2="662.5" y1="865.4961" y2="865.4961"/><text fill="#000000" font-family="sans-serif" font-size="13" lengthAdjust="spacing" textLength="317" x="265.5" y="860.7539">persistOperation(projectId, operationType, details)</text><polygon fill="#181818" points="892.5,890.8066,902.5,894.8066,892.5,898.8066,896.5,894.8066" style="stroke:#181818;stroke-width:1.0;"/><line style="stroke:#181818;stroke-width:1.0;" x1="668.5" x2="898.5" y1="894.8066" y2="894.8066"/><text fill="#000000" font-family="sans-serif" font-size="13" lengthAdjust="spacing" textLength="197" x="675.5" y="890.0645">INSERT INTO AnnotationLog(...)</text><polygon fill="#181818" points="679.5,920.1172,669.5,924.1172,679.5,928.1172,675.5,924.1172" style="stroke:#181818;stroke-width:1.0;"/><line style="stroke:#181818;stroke-width:1.0;stroke-dasharray:2.0,2.0;" x1="673.5" x2="903.5" y1="924.1172" y2="924.1172"/><text fill="#000000" font-family="sans-serif" font-size="13" lengthAdjust="spacing" textLength="18" x="685.5" y="919.375">OK</text><polygon fill="#181818" points="269.5,949.4277,259.5,953.4277,269.5,957.4277,265.5,953.4277" style="stroke:#181818;stroke-width:1.0;"/><line style="stroke:#181818;stroke-width:1.0;stroke-dasharray:2.0,2.0;" x1="263.5" x2="667.5" y1="953.4277" y2="953.4277"/><text fill="#000000" font-family="sans-serif" font-size="13" lengthAdjust="spacing" textLength="18" x="275.5" y="948.6855">OK</text><rect fill="#EEEEEE" height="3" style="stroke:#EEEEEE;stroke-width:1.0;" width="1082" x="0" y="989.083"/><line style="stroke:#000000;stroke-width:1.0;" x1="0" x2="1082" y1="989.083" y2="989.083"/><line style="stroke:#000000;stroke-width:1.0;" x1="0" x2="1082" y1="992.083" y2="992.083"/><rect fill="#EEEEEE" height="23.3105" style="stroke:#000000;stroke-width:2.0;" width="151" x="465.5" y="978.4277"/><text fill="#000000" font-family="sans-serif" font-size="13" font-weight="bold" lengthAdjust="spacing" textLength="133" x="471.5" y="994.9961">AI Auto-Annotation</text><polygon fill="#181818" points="246.5,1029.0488,256.5,1033.0488,246.5,1037.0488,250.5,1033.0488" style="stroke:#181818;stroke-width:1.0;"/><line style="stroke:#181818;stroke-width:1.0;" x1="45.5" x2="252.5" y1="1033.0488" y2="1033.0488"/><text fill="#000000" font-family="sans-serif" font-size="13" lengthAdjust="spacing" textLength="170" x="52.5" y="1028.3066">uploadImage(imageStream)</text><polygon fill="#181818" points="656.5,1058.3594,666.5,1062.3594,656.5,1066.3594,660.5,1062.3594" style="stroke:#181818;stroke-width:1.0;"/><line style="stroke:#181818;stroke-width:1.0;" x1="258.5" x2="662.5" y1="1062.3594" y2="1062.3594"/><text fill="#000000" font-family="sans-serif" font-size="13" lengthAdjust="spacing" textLength="176" x="265.5" y="1057.6172">streamUpload(imageStream)</text><polygon fill="#181818" points="1010.5,1087.6699,1020.5,1091.6699,1010.5,1095.6699,1014.5,1091.6699" style="stroke:#181818;stroke-width:1.0;"/><line style="stroke:#181818;stroke-width:1.0;" x1="668.5" x2="1016.5" y1="1091.6699" y2="1091.6699"/><text fill="#000000" font-family="sans-serif" font-size="13" lengthAdjust="spacing" textLength="136" x="675.5" y="1086.9277">analyzeImage(stream)</text><polygon fill="#181818" points="679.5,1116.9805,669.5,1120.9805,679.5,1124.9805,675.5,1120.9805" style="stroke:#181818;stroke-width:1.0;"/><line style="stroke:#181818;stroke-width:1.0;stroke-dasharray:2.0,2.0;" x1="673.5" x2="1021.5" y1="1120.9805" y2="1120.9805"/><text fill="#000000" font-family="sans-serif" font-size="13" lengthAdjust="spacing" textLength="83" x="685.5" y="1116.2383">annotations[]</text><polygon fill="#181818" points="269.5,1146.291,259.5,1150.291,269.5,1154.291,265.5,1150.291" style="stroke:#181818;stroke-width:1.0;"/><line style="stroke:#181818;stroke-width:1.0;stroke-dasharray:2.0,2.0;" x1="263.5" x2="667.5" y1="1150.291" y2="1150.291"/><text fill="#000000" font-family="sans-serif" font-size="13" lengthAdjust="spacing" textLength="83" x="275.5" y="1145.5488">annotations[]</text><path d="M210,1165.291 L272,1165.291 L272,1172.6016 L262,1182.6016 L210,1182.6016 L210,1165.291 " fill="#EEEEEE" style="stroke:#000000;stroke-width:1.5;"/><rect fill="none" height="266.75" style="stroke:#000000;stroke-width:1.5;" width="758" x="210" y="1165.291"/><text fill="#000000" font-family="sans-serif" font-size="13" font-weight="bold" lengthAdjust="spacing" textLength="17" x="225" y="1178.8594">alt</text><text fill="#000000" font-family="sans-serif" font-size="11" font-weight="bold" lengthAdjust="spacing" textLength="147" x="287" y="1177.9258">[User accepts annotations]</text><polygon fill="#181818" points="656.5,1199.9121,666.5,1203.9121,656.5,1207.9121,660.5,1203.9121" style="stroke:#181818;stroke-width:1.0;"/><line style="stroke:#181818;stroke-width:1.0;" x1="258.5" x2="662.5" y1="1203.9121" y2="1203.9121"/><text fill="#000000" font-family="sans-serif" font-size="13" lengthAdjust="spacing" textLength="252" x="265.5" y="1199.1699">saveAnnotations(projectId, annotations)</text><polygon fill="#181818" points="892.5,1229.2227,902.5,1233.2227,892.5,1237.2227,896.5,1233.2227" style="stroke:#181818;stroke-width:1.0;"/><line style="stroke:#181818;stroke-width:1.0;" x1="668.5" x2="898.5" y1="1233.2227" y2="1233.2227"/><text fill="#000000" font-family="sans-serif" font-size="13" lengthAdjust="spacing" textLength="168" x="675.5" y="1228.4805">INSERT AnnotationRecords</text><polygon fill="#181818" points="679.5,1258.5332,669.5,1262.5332,679.5,1266.5332,675.5,1262.5332" style="stroke:#181818;stroke-width:1.0;"/><line style="stroke:#181818;stroke-width:1.0;stroke-dasharray:2.0,2.0;" x1="673.5" x2="903.5" y1="1262.5332" y2="1262.5332"/><text fill="#000000" font-family="sans-serif" font-size="13" lengthAdjust="spacing" textLength="18" x="685.5" y="1257.791">OK</text><polygon fill="#181818" points="269.5,1287.8438,259.5,1291.8438,269.5,1295.8438,265.5,1291.8438" style="stroke:#181818;stroke-width:1.0;"/><line style="stroke:#181818;stroke-width:1.0;stroke-dasharray:2.0,2.0;" x1="263.5" x2="667.5" y1="1291.8438" y2="1291.8438"/><text fill="#000000" font-family="sans-serif" font-size="13" lengthAdjust="spacing" textLength="18" x="275.5" y="1287.1016">OK</text><line style="stroke:#000000;stroke-width:1.0;stroke-dasharray:2.0,2.0;" x1="210" x2="968" y1="1300.8438" y2="1300.8438"/><text fill="#000000" font-family="sans-serif" font-size="11" font-weight="bold" lengthAdjust="spacing" textLength="84" x="215" y="1311.4785">[User discards]</text><polygon fill="#181818" points="656.5,1332.1094,666.5,1336.1094,656.5,1340.1094,660.5,1336.1094" style="stroke:#181818;stroke-width:1.0;"/><line style="stroke:#181818;stroke-width:1.0;stroke-dasharray:2.0,2.0;" x1="258.5" x2="662.5" y1="1336.1094" y2="1336.1094"/><text fill="#000000" font-family="sans-serif" font-size="13" lengthAdjust="spacing" textLength="187" x="265.5" y="1331.3672">discardAnnotations(projectId)</text><polygon fill="#181818" points="892.5,1361.4199,902.5,1365.4199,892.5,1369.4199,896.5,1365.4199" style="stroke:#181818;stroke-width:1.0;"/><line style="stroke:#181818;stroke-width:1.0;" x1="668.5" x2="898.5" y1="1365.4199" y2="1365.4199"/><text fill="#000000" font-family="sans-serif" font-size="13" lengthAdjust="spacing" textLength="162" x="675.5" y="1360.6777">DELETE TempAnnotations</text><polygon fill="#181818" points="679.5,1390.7305,669.5,1394.7305,679.5,1398.7305,675.5,1394.7305" style="stroke:#181818;stroke-width:1.0;"/><line style="stroke:#181818;stroke-width:1.0;stroke-dasharray:2.0,2.0;" x1="673.5" x2="903.5" y1="1394.7305" y2="1394.7305"/><text fill="#000000" font-family="sans-serif" font-size="13" lengthAdjust="spacing" textLength="18" x="685.5" y="1389.9883">OK</text><polygon fill="#181818" points="269.5,1420.041,259.5,1424.041,269.5,1428.041,265.5,1424.041" style="stroke:#181818;stroke-width:1.0;"/><line style="stroke:#181818;stroke-width:1.0;stroke-dasharray:2.0,2.0;" x1="263.5" x2="667.5" y1="1424.041" y2="1424.041"/><text fill="#000000" font-family="sans-serif" font-size="13" lengthAdjust="spacing" textLength="18" x="275.5" y="1419.2988">OK</text><!--SRC=[fLNRZjem47tFLupsALIm7u14fR1aLLIsj2IhFdJxO9mfTJUn8zlifL_ViNDd4L0j3pYnppdZ6HzF6BTAmxr17G4pSEMU8BeAIgQjuA9aqiAjLjAYp0QJ6yo40VzplEerJ2op20bfucWeCcVyyL0Z-RPQp3iDUeK5ispB30x9qJ91_IGuLi1e2P6KYc899H_adU1QcGfm5GIp6NpLwWzo2e0v3GI2sIoeafnyRFE1-ZS5ut4rAoohSPcDWXPAj3g3XhF3Xh0IneQZe5adQ2ynZqtYLNoJmWUutQplcjsPe89D3hKTezw3-V6pqptS-W1rAZrLelo_v7B5iYECyobcT7vZA54NmXWgl7cG_PpX-wTu4uF8Pgtg1LLOjABcWchqqSuC6sJv91K5Gfm9A-GErhJelMESBtAbIjWxtzFqBqKqm1h8l7bCuFIFrfUiOycdhM2ecgVqjSIH9xBSmc0QPh3Gx1csQYyp5sQhNe8cwVwXjCzJq3IWdjUCkNe9kL8wCrK8p0s-YP4yagijUJzdMyo9TLcCXXQMIaXhnbIC7PwAuwhgQa_JLg0v5wKsOuqE9Ijm35pbIezfZN5XNqy4YxACm4M1qfuBP7whvviAkfJbteOMNsmjJOqeEAIs7Osex0bzA-lCFnvkPGmPMYRokZ0Lzy2JKrX_VXkcDVdK-SrGx-ZSSs6qezTm2iilIRn9QKZNlVwuKhlm-lgwOXwzQtwV0zrX8MdL5upkakkyUwicdVoPphelNIjP5co7eN3_YTN8YfFDntZ8lMSEIRt4Uvy4JsAIvQz_iOfaQdm7UfCoQpCuqsE7mC3TPl-HP9nZQKr__THPEqjrLJFze-ufN7A-dSe6kUi1xpjPTyjyGkHWpXgvBekUuhJ174tavDuNz7b8OqYnAAE3Wht7a_y0]--></g></svg>